<svg width="22" height="23" viewBox="0 0 22 23" fill="none" xmlns="http://www.w3.org/2000/svg">
<path d="M20 8.48169H14.5V2.48169C14.5 2.38275 14.4706 2.28605 14.4156 2.20381C14.3606 2.12158 14.2824 2.05751 14.191 2.01972C14.0996 1.98192 13.999 1.9721 13.902 1.9915C13.8049 2.0109 13.7159 2.05864 13.646 2.12869L1.654 14.1177C1.58395 14.1876 1.53621 14.2766 1.51681 14.3737C1.49741 14.4707 1.50723 14.5713 1.54503 14.6627C1.58282 14.7541 1.64689 14.8323 1.72912 14.8873C1.81136 14.9423 1.90807 14.9717 2.007 14.9717H7.688C7.35449 16.1203 7.48558 17.3539 8.053 18.4067C8.46698 19.2178 9.10649 19.8921 9.89461 20.3483C10.6827 20.8046 11.5859 21.0234 12.4954 20.9785C13.405 20.9336 14.2822 20.6269 15.0216 20.0952C15.7609 19.5636 16.3309 18.8296 16.663 17.9817H20C20.1326 17.9817 20.2598 17.929 20.3536 17.8352C20.4473 17.7415 20.5 17.6143 20.5 17.4817V8.98169C20.5 8.84908 20.4473 8.72191 20.3536 8.62814C20.2598 8.53437 20.1326 8.48169 20 8.48169ZM8.382 13.4817H4.364L13 4.83169V8.48169H11.5C11.3674 8.48169 11.2402 8.53437 11.1464 8.62814C11.0527 8.72191 11 8.84908 11 8.98169V11.6537C9.9425 11.9426 9.01752 12.5885 8.382 13.4817ZM12.25 19.5067C11.6023 19.5067 10.9691 19.3146 10.4305 18.9548C9.89194 18.5949 9.47217 18.0834 9.2243 17.485C8.97642 16.8866 8.91156 16.2281 9.03793 15.5928C9.1643 14.9575 9.47621 14.3739 9.93423 13.9159C10.3922 13.4579 10.9758 13.146 11.6111 13.0196C12.2464 12.8933 12.9049 12.9581 13.5033 13.206C14.1017 13.4539 14.6132 13.8736 14.9731 14.4122C15.3329 14.9508 15.525 15.584 15.525 16.2317C15.525 16.6618 15.4403 17.0876 15.2757 17.485C15.1111 17.8823 14.8699 18.2434 14.5658 18.5475C14.2617 18.8516 13.9006 19.0928 13.5033 19.2574C13.1059 19.422 12.6801 19.5067 12.25 19.5067Z" fill="black"/>
</svg>
