<svg width="10" height="15" viewBox="0 0 10 15" fill="none" xmlns="http://www.w3.org/2000/svg">
<g clip-path="url(#clip0_1_1098)">
<path d="M4.99995 0.989502C3.67531 0.989502 2.40499 1.51547 1.46834 2.45213C0.531683 3.38878 0.00537109 4.6591 0.00537109 5.98374C0.00537109 9.97908 4.99995 14.9739 4.99995 14.9739C4.99995 14.9739 9.99452 9.97908 9.99452 5.98374C9.99461 5.32782 9.86549 4.67918 9.61452 4.07317C9.36356 3.46717 8.9957 2.91593 8.53189 2.45213C8.06809 1.98833 7.5172 1.62012 6.91119 1.36916C6.30519 1.11819 5.65586 0.98941 4.99995 0.989502ZM4.99995 7.9817C4.6049 7.9817 4.21883 7.86519 3.89034 7.64575C3.56186 7.4263 3.30583 7.11345 3.15459 6.74851C3.00335 6.38356 2.96359 5.98199 3.04056 5.59452C3.11753 5.20705 3.30759 4.85107 3.58683 4.57164C3.86606 4.2922 4.22195 4.10261 4.60937 4.02537C4.99678 3.94813 5.3983 3.98637 5.76335 4.13736C6.1284 4.28834 6.44058 4.54512 6.66025 4.87345C6.87993 5.20178 6.99729 5.58733 6.99757 5.98237C6.99766 6.2448 6.94598 6.50465 6.84564 6.74714C6.7453 6.98963 6.59823 7.2102 6.41273 7.39583C6.22722 7.58146 6.00714 7.72824 5.76472 7.82875C5.5223 7.92926 5.26238 7.98161 4.99995 7.9817Z" fill="black"/>
</g>
<defs>
<clipPath id="clip0_1_1098">
<rect width="10" height="13.9844" fill="white" transform="translate(0 0.989502)"/>
</clipPath>
</defs>
</svg>
