<svg width="16" height="17" viewBox="0 0 16 17" fill="none" xmlns="http://www.w3.org/2000/svg">
<g clip-path="url(#clip0_1_1125)">
<path d="M5.04348 0.981689C6.86957 0.981689 8.34783 2.45995 8.34783 4.28604C8.34783 6.11212 6.86957 7.67734 5.04348 7.67734C3.2174 7.67734 1.73914 6.19908 1.73914 4.28604C1.73914 2.45995 3.2174 0.981689 5.04348 0.981689ZM5.04348 6.37299C6.17392 6.37299 7.04348 5.50343 7.04348 4.37299C7.04348 3.24256 6.17392 2.37299 5.04348 2.37299C3.91305 2.37299 3.04348 3.24256 3.04348 4.37299C3.04348 5.41647 3.91305 6.37299 5.04348 6.37299Z" fill="black"/>
<path d="M0.695652 13.0686C0.347826 13.0686 0.0869565 12.8078 0 12.46C0 9.67734 2.26087 7.41647 5.04348 7.41647C6.34783 7.41647 7.65217 7.93821 8.6087 8.89473C8.86957 9.1556 8.86957 9.59039 8.6087 9.85126C8.34783 10.1121 7.91304 10.1121 7.65217 9.85126C6.17391 8.37299 3.82609 8.45995 2.34783 9.93821C1.65217 10.6339 1.30435 11.5904 1.30435 12.5469C1.30435 12.7208 1.04348 13.0686 0.695652 13.0686Z" fill="black"/>
<path d="M9.47824 10.7208H15.3913C15.7391 10.7208 16.0869 10.9817 16.0869 11.4165V16.286C16.0869 16.6339 15.8261 16.9817 15.3913 16.9817H9.47824C9.13042 16.9817 8.78259 16.7208 8.78259 16.286V11.4165C8.78259 11.0687 9.13042 10.7208 9.47824 10.7208ZM14.6956 12.1121H10.1739V15.6773H14.6956V12.1121Z" fill="black"/>
<path d="M12.4348 7.85126C13.913 7.85126 15.0435 8.98169 15.0435 10.46V11.4165C15.0435 11.7643 14.7826 12.1121 14.3478 12.1121H10.4348C10.087 12.1121 9.73914 11.8513 9.73914 11.4165V10.46C9.82609 8.98169 10.9565 7.85126 12.4348 7.85126ZM13.7391 10.7208V10.373C13.7391 9.67734 13.1304 9.06865 12.4348 9.06865C11.7391 9.06865 11.1304 9.67734 11.1304 10.373V10.7208H13.7391Z" fill="black"/>
<path d="M12.4348 14.8078C11.9131 14.8078 11.5652 14.373 11.5652 13.9382C11.5652 13.5034 12 13.0686 12.4348 13.0686C12.9566 13.0686 13.3044 13.5034 13.3044 13.9382C13.3044 14.373 12.8696 14.8078 12.4348 14.8078Z" fill="black"/>
</g>
<defs>
<clipPath id="clip0_1_1125">
<rect width="16" height="16" fill="white" transform="translate(0 0.981689)"/>
</clipPath>
</defs>
</svg>
