<svg width="16" height="16" viewBox="0 0 16 16" fill="none" xmlns="http://www.w3.org/2000/svg">
<g clip-path="url(#clip0_1_1117)">
<path d="M4.97946 15.7551C2.22544 15.7551 0.00445557 13.5342 0.00445557 10.7801C0.00445557 9.44755 0.537492 8.20379 1.42589 7.22656L7.46697 1.18548C8.79956 -0.147113 11.0205 -0.147113 12.442 1.18548C13.8634 2.51807 13.7746 4.73906 12.442 6.16049L6.40089 12.2016C5.60134 13.0011 4.35759 13.0011 3.55803 12.2904C2.75848 11.5797 2.75848 10.2471 3.55803 9.44755C3.55803 9.44755 3.55803 9.44755 3.64687 9.35871L9.68795 3.31763C9.86563 3.13995 10.221 3.13995 10.3987 3.31763C10.5763 3.4953 10.5763 3.85066 10.3987 4.02834L4.35759 10.0694C4.00223 10.4248 3.91339 11.0467 4.35759 11.4909C4.71295 11.8462 5.33482 11.935 5.77902 11.4909L11.8201 5.44977C12.7973 4.47254 12.7973 2.87343 11.8201 1.89619C10.8429 0.91896 9.24376 0.91896 8.26652 1.89619L2.1366 7.93727C0.537492 9.53638 0.537492 12.0239 2.1366 13.623C3.73571 15.2221 6.22322 15.2221 7.82233 13.623L15.1072 6.24933C15.2848 6.07165 15.6402 6.07165 15.8179 6.24933C15.9956 6.42701 15.9956 6.78236 15.8179 6.96004L8.53304 14.2449C7.55581 15.2221 6.31206 15.7551 4.97946 15.7551Z" fill="black"/>
</g>
<defs>
<clipPath id="clip0_1_1117">
<rect width="16" height="15.5469" fill="white" transform="translate(0 0.208252)"/>
</clipPath>
</defs>
</svg>
