<svg width="16" height="17" viewBox="0 0 16 17" fill="none" xmlns="http://www.w3.org/2000/svg">
<g clip-path="url(#clip0_1_1081)">
<path d="M3.043 5.43869L4.836 7.23169L6.25 5.81669L4.457 4.02469L5 3.48169L2 1.98169L0.999998 2.98169L2.5 5.98169L3.043 5.43869ZM14.558 13.4197L11.518 10.3817L9.4 12.4997L12.444 15.5427C12.5819 15.6882 12.7477 15.8045 12.9313 15.8849C13.115 15.9652 13.313 16.008 13.5134 16.0105C13.7139 16.0131 13.9129 15.9754 14.0985 15.8997C14.2842 15.8241 14.4528 15.712 14.5944 15.57C14.736 15.4281 14.8477 15.2592 14.9229 15.0734C14.9982 14.8875 15.0354 14.6885 15.0323 14.488C15.0293 14.2875 14.9861 14.0897 14.9053 13.9062C14.8246 13.7227 14.7078 13.5573 14.562 13.4197H14.558ZM12.621 6.48169H10.5V4.36069L12.674 2.18769C12.0504 1.96236 11.3755 1.91918 10.7283 2.0632C10.0811 2.20721 9.48821 2.53247 9.01898 3.00096C8.54976 3.46944 8.22358 4.06181 8.07855 4.70881C7.93352 5.35582 7.97565 6.03074 8.2 6.65469L1.439 13.4217C1.29358 13.5597 1.1773 13.7255 1.09704 13.9092C1.01678 14.0929 0.974168 14.2909 0.971716 14.4913C0.969264 14.6918 1.00702 14.8907 1.08277 15.0764C1.15851 15.262 1.2707 15.4306 1.4127 15.5721C1.5547 15.7136 1.72363 15.8253 1.90951 15.9004C2.09538 15.9755 2.29444 16.0126 2.4949 16.0095C2.69536 16.0064 2.89317 15.9631 3.07662 15.8823C3.26008 15.8014 3.42546 15.6846 3.563 15.5387L10.327 8.78169C10.9511 9.00707 11.6266 9.05006 12.2743 8.90561C12.9219 8.76116 13.5151 8.43525 13.9843 7.96602C14.4536 7.49679 14.7795 6.90363 14.9239 6.25595C15.0684 5.60827 15.0254 4.93284 14.8 4.30869L12.621 6.48169Z" fill="black"/>
</g>
<defs>
<clipPath id="clip0_1_1081">
<rect width="16" height="16" fill="white" transform="translate(0 0.981689)"/>
</clipPath>
</defs>
</svg>
