<svg width="37" height="36" viewBox="0 0 37 36" fill="none" xmlns="http://www.w3.org/2000/svg">
<path d="M6.95029 0.169189H30.1993C31.8985 0.177795 33.5247 0.860732 34.7202 2.06777C35.9157 3.27481 36.5825 4.90709 36.574 6.60555V29.1703C36.5825 30.8688 35.9157 32.5011 34.7202 33.7081C33.5247 34.9151 31.8985 35.5981 30.1993 35.6067H6.95029C5.25105 35.5981 3.62481 34.9152 2.4293 33.7082C1.2338 32.5011 0.566951 30.8688 0.575459 29.1703V6.60555C0.566951 4.90706 1.2338 3.27475 2.4293 2.06771C3.62481 0.860663 5.25105 0.177747 6.95029 0.169189Z" fill="#330000"/>
<path d="M18.0197 21.3759H12.4413L11.3063 24.9002C11.291 24.9646 11.2536 25.0217 11.2007 25.0615C11.1478 25.1013 11.0826 25.1214 11.0165 25.1183H8.19114C8.03006 25.1183 7.9737 25.0298 8.02206 24.8528L12.8519 10.9482C12.9003 10.8028 12.9488 10.6379 12.9973 10.4533C13.0605 10.1313 13.0928 9.80398 13.0939 9.47581C13.0906 9.45285 13.0927 9.42944 13.1 9.40744C13.1074 9.38544 13.1197 9.36545 13.1361 9.34905C13.1525 9.33265 13.1725 9.3203 13.1945 9.31296C13.2166 9.30563 13.24 9.30352 13.2629 9.3068H17.1021C17.2145 9.3068 17.279 9.34702 17.2953 9.42747L22.7771 24.8762C22.8256 25.0372 22.7771 25.1177 22.6316 25.1176H19.4927C19.4388 25.1235 19.3845 25.1096 19.3401 25.0785C19.2957 25.0474 19.2641 25.0012 19.2512 24.9486L18.0197 21.3759ZM13.3106 18.3339H17.1259C17.0289 18.0122 16.9162 17.6502 16.7879 17.2477C16.6595 16.8452 16.5227 16.415 16.3775 15.9569L15.9428 14.581C15.7982 14.1223 15.6653 13.6797 15.5441 13.2533C15.4229 12.8268 15.3144 12.4365 15.2185 12.0824H15.1943C15.0584 12.7343 14.8891 13.3788 14.6872 14.0134C14.4616 14.7372 14.232 15.4775 13.9987 16.2344C13.7654 16.9912 13.536 17.6911 13.3106 18.3339Z" fill="#FF9A00"/>
<path d="M26.0369 11.8657C25.7906 11.8756 25.545 11.8334 25.3162 11.7419C25.0873 11.6504 24.8803 11.5116 24.7088 11.3347C24.5377 11.1501 24.4048 10.9335 24.3178 10.6974C24.2307 10.4613 24.1912 10.2103 24.2016 9.95883C24.1928 9.70987 24.2367 9.46187 24.3303 9.23102C24.4239 9.00017 24.5652 8.79166 24.745 8.61911C24.923 8.44833 25.1331 8.31452 25.3631 8.22543C25.5932 8.13634 25.8387 8.09374 26.0853 8.10008C26.3363 8.08638 26.5873 8.1255 26.8222 8.21491C27.0571 8.30431 27.2706 8.44202 27.4489 8.61911C27.6155 8.79891 27.745 9.00979 27.8299 9.23968C27.9149 9.46957 27.9536 9.71395 27.9439 9.95883C27.954 10.2112 27.9133 10.4631 27.8241 10.6995C27.7349 10.9358 27.5991 11.1518 27.4247 11.3347C27.2425 11.5142 27.025 11.6541 26.7861 11.7455C26.5471 11.8369 26.2918 11.8778 26.0362 11.8657H26.0369ZM24.3706 24.8764V13.3377C24.3706 13.1924 24.4348 13.1197 24.5639 13.1197H27.5343C27.663 13.1197 27.7275 13.1924 27.7276 13.3377V24.8758C27.7276 25.0368 27.6632 25.1173 27.5343 25.1172H24.589C24.4434 25.1173 24.3706 25.0369 24.3706 24.876V24.8764Z" fill="#FF9A00"/>
</svg>
