<svg width="16" height="17" viewBox="0 0 16 17" fill="none" xmlns="http://www.w3.org/2000/svg">
<g clip-path="url(#clip0_1_997)">
<path d="M0 7.46875H3V15.4688H0V7.46875ZM6.707 15.1757C6.9 15.3657 7.132 15.4657 7.384 15.4688H11.5C11.756 15.4688 12.012 15.3707 12.207 15.1757L14.707 12.6757C14.897 12.4858 14.995 12.2188 15 11.9688V8.46875C15 7.91575 14.555 7.46875 14 7.46875H9L10.5 4.96875C10.5 4.96875 11 4.17675 11 3.46875V2.46875C11 1.91575 10.553 1.46875 10 1.46875L9 3.46875L5 7.46875V13.4688L6.707 15.1757Z" fill="#959595"/>
</g>
<defs>
<clipPath id="clip0_1_997">
<rect width="16" height="16" fill="white" transform="translate(0 0.46875)"/>
</clipPath>
</defs>
</svg>
