<svg width="37" height="36" viewBox="0 0 37 36" fill="none" xmlns="http://www.w3.org/2000/svg">
<mask id="mask0_1_954" style="mask-type:luminance" maskUnits="userSpaceOnUse" x="0" y="0" width="37" height="36">
<path d="M0.0754395 0.169189H36.074V35.6067H0.0754395V0.169189Z" fill="white"/>
</mask>
<g mask="url(#mask0_1_954)">
<path d="M6.45029 0.169189H29.6993C31.3985 0.177795 33.0247 0.860732 34.2202 2.06777C35.4157 3.27481 36.0825 4.90709 36.074 6.60555V29.1703C36.0825 30.8688 35.4157 32.5011 34.2202 33.7081C33.0247 34.9151 31.3985 35.5981 29.6993 35.6067H6.45029C4.75105 35.5981 3.12481 34.9152 1.9293 33.7082C0.733797 32.5011 0.0669509 30.8688 0.0754588 29.1703V6.60555C0.0669509 4.90706 0.733797 3.27475 1.9293 2.06771C3.12481 0.860663 4.75105 0.177747 6.45029 0.169189Z" fill="#001E36"/>
<path d="M8.18127 24.9391V9.51489C8.18127 9.40222 8.22963 9.34588 8.32672 9.34588L9.17323 9.33389L10.3186 9.30972L11.6228 9.28555L12.9864 9.27355C14.0354 9.24666 15.0812 9.40185 16.0771 9.73224C16.8326 9.98731 17.5216 10.4076 18.0941 10.9624C18.5792 11.4435 18.9541 12.0241 19.1928 12.6641C19.4188 13.2869 19.5332 13.9447 19.531 14.6072C19.531 15.8948 19.2331 16.9569 18.6374 17.7935C18.0379 18.6337 17.1951 19.2701 16.2226 19.6168C15.2081 19.9951 14.0812 20.1234 12.8409 20.1234C12.4866 20.1234 12.237 20.1194 12.0922 20.1114C11.9474 20.1034 11.73 20.0994 11.4402 20.0994V24.9153C11.4446 24.945 11.442 24.9752 11.4326 25.0037C11.4232 25.0321 11.4072 25.058 11.386 25.0792C11.3648 25.1004 11.3389 25.1163 11.3105 25.1257C11.282 25.1351 11.2517 25.1378 11.2221 25.1334H8.35018C8.23745 25.1323 8.18109 25.068 8.18109 24.9393L8.18127 24.9391ZM11.443 12.2423V17.2732C11.652 17.2894 11.8452 17.2974 12.0226 17.2973H12.8194C13.406 17.2954 13.9887 17.2025 14.5466 17.0218C15.0251 16.8798 15.4526 16.6033 15.7782 16.2253C16.0934 15.8553 16.2509 15.3404 16.2509 14.6806C16.2637 14.2136 16.1422 13.7528 15.9008 13.3529C15.647 12.9661 15.2802 12.667 14.8503 12.496C14.2887 12.2778 13.6889 12.1752 13.0867 12.1943C12.7003 12.1943 12.3582 12.1983 12.0604 12.2063C11.7626 12.2143 11.5573 12.2264 11.4446 12.2427L11.443 12.2423ZM28.8702 16.3585C28.4165 16.1256 27.9334 15.955 27.4339 15.8515C26.8834 15.7252 26.3205 15.6604 25.7556 15.6583C25.4501 15.6502 25.145 15.6869 24.85 15.7673C24.662 15.8095 24.4948 15.9163 24.3773 16.069C24.2987 16.1914 24.2568 16.3338 24.2566 16.4794C24.2612 16.6206 24.3123 16.7563 24.4021 16.8655C24.5431 17.0305 24.7155 17.1659 24.9091 17.2639C25.2534 17.4493 25.6082 17.6145 25.9716 17.7587C26.7822 18.0298 27.5567 18.3986 28.2779 18.8569C28.7693 19.1669 29.176 19.594 29.4613 20.1C29.7012 20.579 29.8214 21.1091 29.8115 21.6447C29.8259 22.352 29.6237 23.0469 29.2319 23.6361C28.8124 24.2342 28.2298 24.6993 27.5534 24.9758C26.6907 25.3218 25.7658 25.4862 24.8366 25.4587C24.1515 25.4656 23.4676 25.4008 22.7959 25.2655C22.2668 25.1685 21.7516 25.0063 21.2624 24.7826C21.2096 24.7554 21.1656 24.7137 21.1357 24.6624C21.1057 24.6111 21.091 24.5523 21.0933 24.493V21.886C21.0904 21.8605 21.0944 21.8346 21.1051 21.8112C21.1157 21.7878 21.1325 21.7678 21.1537 21.7532C21.1744 21.7415 21.1982 21.7363 21.2219 21.7385C21.2456 21.7406 21.2681 21.7499 21.2864 21.7652C21.8642 22.1057 22.4916 22.354 23.1459 22.5012C23.7229 22.6458 24.3147 22.7228 24.9095 22.7305C25.4729 22.7305 25.8874 22.6578 26.1531 22.5125C26.2731 22.4575 26.3746 22.369 26.4453 22.2577C26.516 22.1463 26.5529 22.0168 26.5516 21.8849C26.5414 21.7634 26.5035 21.6458 26.4407 21.5412C26.3779 21.4366 26.2919 21.3478 26.1894 21.2816C25.948 21.0885 25.4571 20.8551 24.7168 20.5816C23.9585 20.3177 23.2396 19.9523 22.5796 19.4954C22.1075 19.1672 21.7188 18.7333 21.4446 18.2282C21.2069 17.7526 21.0868 17.227 21.0944 16.6954C21.093 16.0568 21.2685 15.4302 21.6015 14.885C21.9811 14.2847 22.5262 13.8069 23.1712 13.5091C23.8794 13.1554 24.7642 12.9784 25.8256 12.9781C26.448 12.9732 27.0698 13.0176 27.6852 13.111C28.1308 13.1675 28.5664 13.2853 28.9797 13.461C29.0126 13.4703 29.0429 13.4872 29.0681 13.5102C29.0934 13.5333 29.1129 13.5619 29.1251 13.5938C29.1415 13.653 29.1497 13.7142 29.1493 13.7756V16.2135C29.1511 16.242 29.1453 16.2704 29.1326 16.296C29.1198 16.3215 29.1005 16.3432 29.0766 16.3589C29.0112 16.3916 28.9342 16.3916 28.8688 16.3589L28.8702 16.3585Z" fill="#31A8FF"/>
</g>
</svg>
