<svg width="37" height="36" viewBox="0 0 37 36" fill="none" xmlns="http://www.w3.org/2000/svg">
<path d="M6.45026 0.403564H29.6993C30.5409 0.40711 31.3735 0.576481 32.1495 0.901987C32.9255 1.22749 33.6297 1.70275 34.2218 2.30056C34.8139 2.89837 35.2822 3.607 35.6 4.38591C35.9178 5.16483 36.0789 5.99873 36.074 6.83992V29.4047C36.0789 30.2459 35.9178 31.0798 35.6 31.8587C35.2822 32.6376 34.8139 33.3463 34.2218 33.9441C33.6297 34.5419 32.9255 35.0171 32.1495 35.3426C31.3735 35.6681 30.5409 35.8375 29.6993 35.8411H6.45026C5.60868 35.8375 4.77605 35.6682 4.00001 35.3427C3.22397 35.0172 2.51976 34.5419 1.92766 33.9441C1.33557 33.3463 0.867206 32.6377 0.549379 31.8588C0.231552 31.0798 0.0704962 30.2459 0.0754273 29.4047V6.83992C0.0704962 5.99872 0.231552 5.1648 0.549379 4.38587C0.867206 3.60695 1.33557 2.8983 1.92766 2.30049C2.51976 1.70268 3.22397 1.22743 4.00001 0.901935C4.77605 0.576439 5.60868 0.407086 6.45026 0.403564Z" fill="#00005B"/>
<path d="M8.62512 25.1722V9.74325C8.62512 9.63821 8.67003 9.57824 8.77512 9.57824C9.02965 9.57824 9.27019 9.57824 9.61508 9.56334C9.97507 9.54826 10.3501 9.54826 10.755 9.53336C11.1599 9.51845 11.595 9.51827 12.0599 9.50337C12.5248 9.48847 12.9749 9.48883 13.4249 9.48883C14.6549 9.48883 15.6748 9.63876 16.5148 9.9537C17.2678 10.2093 17.9544 10.6293 18.5247 11.1831C19.0079 11.6675 19.3813 12.2501 19.6196 12.8914C19.8468 13.5162 19.9637 14.1757 19.965 14.8404C19.965 16.1299 19.665 17.1943 19.0651 18.0338C18.4623 18.8723 17.6207 19.5097 16.6501 19.8629C15.6301 20.2378 14.5047 20.3718 13.2751 20.3718C12.9151 20.3718 12.6751 20.3718 12.5251 20.3567C12.3752 20.3416 12.1652 20.3416 11.8801 20.3416V25.1542C11.8833 25.1789 11.8816 25.2039 11.875 25.2279C11.8684 25.2519 11.8571 25.2743 11.8417 25.2939C11.8264 25.3134 11.8072 25.3297 11.7855 25.3418C11.7637 25.3538 11.7397 25.3614 11.715 25.3641H8.80602C8.68512 25.3661 8.62512 25.3063 8.62512 25.1722ZM11.895 12.4723V17.5099C12.105 17.5248 12.2999 17.5399 12.4799 17.5399H13.2748C13.8603 17.5406 14.4424 17.4495 14.9998 17.27C15.4779 17.1295 15.9051 16.8535 16.2297 16.4755C16.5446 16.1007 16.6948 15.5908 16.6948 14.9308C16.7088 14.4622 16.5889 13.9994 16.3494 13.5965C16.0992 13.2074 15.7314 12.9082 15.2994 12.7424C14.7363 12.5219 14.1338 12.4198 13.5295 12.4425C13.1395 12.4425 12.7946 12.4425 12.5095 12.4574C12.3045 12.444 12.0987 12.4491 11.8946 12.4725L11.895 12.4723Z" fill="#9999FF"/>
<path d="M22.0646 13.3419H24.6896C24.7607 13.3437 24.8293 13.3678 24.8859 13.4109C24.9424 13.454 24.9839 13.5138 25.0045 13.5818C25.0506 13.7024 25.0811 13.8284 25.0954 13.9567C25.1254 14.1066 25.1554 14.2714 25.1703 14.4216C25.1854 14.5864 25.2003 14.7668 25.2003 14.9613C25.6506 14.4357 26.1948 13.9985 26.8051 13.6719C27.5023 13.2847 28.2875 13.0833 29.085 13.0871C29.1097 13.0839 29.1348 13.0856 29.1588 13.0922C29.1828 13.0987 29.2052 13.11 29.2248 13.1254C29.2444 13.1408 29.2607 13.1599 29.2727 13.1817C29.2848 13.2034 29.2924 13.2274 29.295 13.2521V16.2358C29.295 16.3557 29.22 16.4006 29.055 16.4006C28.5109 16.3828 27.9667 16.4332 27.4351 16.5505C27.0018 16.6399 26.5794 16.7756 26.1752 16.9552C25.8849 17.086 25.6246 17.2747 25.4101 17.5099V25.1562C25.4101 25.3061 25.3501 25.3661 25.215 25.3661H22.2595C22.2318 25.3707 22.2035 25.3696 22.1763 25.363C22.1491 25.3564 22.1235 25.3443 22.101 25.3274C22.0786 25.3106 22.0598 25.2894 22.0458 25.2652C22.0318 25.2409 22.0228 25.214 22.0195 25.1862V16.8202C22.0195 16.4604 22.0195 16.0857 22.0044 15.6957C21.9893 15.3057 21.9893 14.916 21.9744 14.5262C21.9744 14.1809 21.9444 13.8515 21.9144 13.5067C21.9105 13.489 21.9101 13.4707 21.9132 13.4528C21.9164 13.435 21.923 13.4179 21.9327 13.4026C21.9425 13.3873 21.9551 13.374 21.97 13.3636C21.9849 13.3532 22.0016 13.3458 22.0193 13.3419C22.0193 13.327 22.0495 13.327 22.0646 13.3419Z" fill="#9999FF"/>
</svg>
