<svg width="24" height="23" viewBox="0 0 24 23" fill="none" xmlns="http://www.w3.org/2000/svg">
<path d="M21.9381 19.9736L16.9759 15.0113C18.1744 13.3388 18.7 11.2765 18.4481 9.2343C18.1963 7.19208 17.1854 5.31932 15.6164 3.98808C14.0473 2.65684 12.0349 1.96452 9.97896 2.04866C7.92299 2.13281 5.9739 2.98725 4.51889 4.44226C3.06388 5.89727 2.20943 7.84636 2.12529 9.90233C2.04114 11.9583 2.73346 13.9707 4.06471 15.5397C5.39595 17.1088 7.2687 18.1196 9.31092 18.3715C11.3531 18.6234 13.4154 18.0978 15.088 16.8992L20.0502 21.8615C20.3077 22.072 20.6343 22.1794 20.9665 22.1628C21.2987 22.1461 21.6129 22.0067 21.8481 21.7715C22.0833 21.5363 22.2228 21.2221 22.2394 20.8899C22.256 20.5577 22.1487 20.2311 21.9381 19.9736ZM4.58846 10.258C4.58846 9.12076 4.92569 8.00905 5.55751 7.06347C6.18932 6.11789 7.08735 5.38089 8.13803 4.94569C9.1887 4.51049 10.3448 4.39662 11.4602 4.61848C12.5756 4.84035 13.6002 5.38798 14.4043 6.19213C15.2085 6.99629 15.7561 8.02084 15.978 9.13623C16.1998 10.2516 16.086 11.4078 15.6508 12.4584C15.2156 13.5091 14.4786 14.4071 13.533 15.0389C12.5874 15.6708 11.4757 16.008 10.3385 16.008C8.81346 16.008 7.35093 15.4022 6.27259 14.3239C5.19426 13.2455 4.58846 11.783 4.58846 10.258Z" fill="#696969"/>
</svg>
