<svg width="61" height="17" viewBox="0 0 61 17" fill="none" xmlns="http://www.w3.org/2000/svg">
<g clip-path="url(#clip0_1_1158)">
<path d="M26.4812 11.2982L25.8346 13.297C25.826 13.3291 25.8066 13.3572 25.7796 13.3767C25.7527 13.3961 25.7199 13.4058 25.6867 13.4039H24.1237C24.0297 13.4039 24.0018 13.351 24.0167 13.272L26.7151 5.49679C26.8045 5.23188 26.8491 4.9539 26.847 4.6743C26.8456 4.65118 26.8533 4.62844 26.8684 4.61089C26.8835 4.59335 26.9049 4.58239 26.928 4.58035H29.0836C29.1506 4.58035 29.1776 4.59335 29.1916 4.66131L32.2497 13.285C32.2757 13.352 32.2627 13.4049 32.1827 13.4049H30.4338C30.4018 13.4104 30.3689 13.4038 30.3414 13.3864C30.3139 13.3691 30.2938 13.3422 30.2849 13.311L29.5973 11.3032L26.4812 11.2982ZM29.0976 9.61326C28.8338 8.72381 28.2901 7.09281 28.0403 6.1364H28.0273C27.8114 7.03585 27.3277 8.51494 26.9699 9.61326H29.0976Z" fill="black"/>
<path d="M32.4615 10.113C32.4637 9.61699 32.5693 9.12692 32.7714 8.67399C32.9735 8.22106 33.2677 7.8152 33.6353 7.48227C34.0029 7.14934 34.4359 6.89665 34.9066 6.74029C35.3773 6.58394 35.8754 6.52735 36.3691 6.57413C36.4761 6.57413 36.611 6.58912 36.8128 6.60211V3.94075C36.8114 3.92807 36.8129 3.91522 36.8171 3.90317C36.8213 3.89112 36.8282 3.88018 36.8372 3.87115C36.8462 3.86213 36.8572 3.85525 36.8692 3.85104C36.8813 3.84682 36.8941 3.84538 36.9068 3.84681H38.6057C38.6727 3.84681 38.6867 3.87279 38.6867 3.92776V11.8919C38.6831 12.2205 38.7012 12.549 38.7407 12.8753C38.7407 12.9422 38.7277 12.9692 38.6467 12.9972C37.8067 13.353 36.9036 13.5359 35.9913 13.5349C35.5258 13.5802 35.056 13.5238 34.6144 13.3694C34.1729 13.2151 33.7703 12.9665 33.4344 12.6409C33.0986 12.3153 32.8376 11.9206 32.6696 11.4841C32.5016 11.0475 32.4306 10.5797 32.4615 10.113ZM36.8138 8.19913C36.6528 8.1465 36.4834 8.1238 36.3141 8.13217C36.0599 8.11371 35.8046 8.14951 35.5652 8.23719C35.3258 8.32486 35.1078 8.46242 34.9256 8.64074C34.7434 8.81906 34.6012 9.03406 34.5084 9.27151C34.4156 9.50895 34.3743 9.76341 34.3873 10.018C34.3527 10.2669 34.3742 10.5205 34.4502 10.76C34.5261 10.9996 34.6547 11.2191 34.8265 11.4026C34.9983 11.5861 35.2089 11.7288 35.4429 11.8204C35.677 11.9119 35.9286 11.95 36.1792 11.9318C36.3932 11.9407 36.607 11.9133 36.8118 11.8509L36.8138 8.19913Z" fill="black"/>
<path d="M46.4019 10.017C46.4293 10.4682 46.3645 10.9202 46.2113 11.3455C46.0581 11.7708 45.8199 12.1604 45.5111 12.4905C45.2024 12.8207 44.8296 13.0844 44.4154 13.2656C44.0013 13.4468 43.5546 13.5417 43.1026 13.5445C42.6506 13.5473 42.2028 13.4579 41.7864 13.2818C41.3701 13.1057 40.9941 12.8466 40.6813 12.5203C40.3684 12.194 40.1254 11.8074 39.967 11.384C39.8086 10.9607 39.7382 10.5095 39.76 10.058C39.7335 9.60427 39.801 9.14997 39.9584 8.72359C40.1158 8.29721 40.3596 7.90797 40.6745 7.58028C40.9895 7.25259 41.3687 6.99352 41.7885 6.81935C42.2083 6.64517 42.6596 6.55965 43.114 6.56813C43.5629 6.55597 44.0094 6.63814 44.4246 6.80934C44.8398 6.98054 45.2144 7.23694 45.5243 7.56199C45.8341 7.88704 46.0724 8.2735 46.2236 8.69639C46.3747 9.11927 46.4355 9.56917 46.4019 10.017ZM41.6588 10.032C41.6588 11.2213 42.2115 11.9718 43.113 11.9718C43.8955 11.9718 44.4871 11.2982 44.4871 10.058C44.4871 9.00064 44.0564 8.13117 43.033 8.13117C42.2525 8.13117 41.6588 8.83174 41.6588 10.032Z" fill="black"/>
<path d="M49.2352 3.84681C49.3432 3.84681 49.3672 3.8598 49.3672 3.95474V6.71704C49.7372 6.61876 50.1186 6.57036 50.5014 6.57313C50.9294 6.55194 51.3572 6.62017 51.7573 6.77348C52.1575 6.92679 52.5213 7.16181 52.8256 7.46355C53.1299 7.76529 53.368 8.12713 53.5246 8.526C53.6813 8.92486 53.7531 9.35199 53.7355 9.78016C53.7397 10.2993 53.6357 10.8136 53.4303 11.2903C53.2249 11.7671 52.9225 12.1959 52.5424 12.5495C52.1623 12.903 51.7127 13.1735 51.2223 13.3439C50.7319 13.5142 50.2114 13.5806 49.694 13.5388C48.9771 13.5439 48.2637 13.4398 47.5783 13.23C47.5544 13.217 47.5344 13.198 47.5202 13.1748C47.5061 13.1517 47.4982 13.1253 47.4973 13.0981V3.94075C47.4973 3.87379 47.5233 3.84681 47.5913 3.84681H49.2352ZM50.1607 8.15815C49.8926 8.15471 49.6255 8.19109 49.3681 8.26609V11.9178C49.5319 11.9561 49.6997 11.9743 49.8678 11.9718C50.1342 11.987 50.4008 11.9446 50.6493 11.8474C50.8978 11.7502 51.1223 11.6005 51.3077 11.4086C51.4931 11.2167 51.6349 10.987 51.7234 10.7353C51.8119 10.4836 51.8451 10.2158 51.8206 9.95005C51.8523 9.71909 51.8325 9.48398 51.7625 9.26161C51.6925 9.03924 51.5741 8.83512 51.4159 8.66391C51.2577 8.4927 51.0636 8.35865 50.8474 8.27138C50.6312 8.18411 50.3984 8.14578 50.1657 8.15915L50.1607 8.15815Z" fill="black"/>
<path d="M56.3629 10.5377C56.4298 11.3052 56.9695 11.9368 58.2897 11.9368C58.8573 11.9477 59.4211 11.8426 59.9467 11.628C59.9876 11.6 60.0276 11.615 60.0276 11.695V12.9742C60.0276 13.0741 60.0016 13.1061 59.9337 13.1371C59.2873 13.4301 58.581 13.567 57.8719 13.5368C57.4138 13.5767 56.9524 13.516 56.5201 13.359C56.0878 13.202 55.695 12.9526 55.3691 12.628C55.0432 12.3035 54.7922 11.9117 54.6334 11.48C54.4747 11.0484 54.4121 10.5873 54.45 10.1289C54.4122 9.67724 54.4684 9.2226 54.6149 8.79365C54.7614 8.36469 54.9951 7.97071 55.3013 7.63651C55.6076 7.30231 55.9797 7.03513 56.3942 6.85177C56.8088 6.66842 57.2567 6.57286 57.71 6.57113C58.0926 6.55708 58.4739 6.62318 58.8295 6.76519C59.185 6.90719 59.5069 7.12197 59.7746 7.39572C60.0422 7.66948 60.2496 7.99617 60.3836 8.35482C60.5175 8.71348 60.575 9.09617 60.5523 9.47834C60.5617 9.77968 60.5393 10.0812 60.4853 10.3778C60.4837 10.4056 60.4719 10.4319 60.4522 10.4516C60.4325 10.4713 60.4062 10.4831 60.3784 10.4847C59.9167 10.5289 59.453 10.5469 58.9893 10.5387L56.3629 10.5377ZM58.1148 9.2305C58.3397 9.23875 58.5648 9.23006 58.7884 9.20451V9.10457C58.783 8.95974 58.749 8.8174 58.6884 8.68574C58.6277 8.55409 58.5417 8.43573 58.4352 8.33746C58.3286 8.23919 58.2037 8.16295 58.0676 8.11314C57.9315 8.06333 57.7869 8.04093 57.6421 8.04723C57.3151 8.0421 56.9987 8.16258 56.7579 8.38383C56.5171 8.60509 56.3704 8.91027 56.3479 9.23649L58.1148 9.2305Z" fill="black"/>
<path d="M11.7113 0.890625H18.2303V16.5L11.7113 0.890625Z" fill="black"/>
<path d="M7.11813 0.890625H0.59314V16.5L7.11813 0.890625Z" fill="black"/>
<path d="M9.4147 6.64309L13.5681 16.499H10.8468L9.60458 13.36H6.56445L9.4147 6.64309Z" fill="black"/>
</g>
<defs>
<clipPath id="clip0_1_1158">
<rect width="60" height="15.6094" fill="white" transform="translate(0.574707 0.890625)"/>
</clipPath>
</defs>
</svg>
