<svg width="83" height="16" viewBox="0 0 83 16" fill="none" xmlns="http://www.w3.org/2000/svg">
<path d="M7.61864 0.121485C8.31766 0.121485 8.9629 0.175255 9.55438 0.336567C10.1459 0.444108 10.6298 0.65919 11.06 0.928042C11.4901 1.19689 11.8127 1.57329 12.0278 2.05722C12.2429 2.54116 12.3504 3.13263 12.3504 3.77788C12.3504 4.53067 12.1891 5.17591 11.8127 5.65985C11.4901 6.14378 10.9524 6.57394 10.3072 6.89657C11.2213 7.16542 11.9203 7.64935 12.3504 8.2946C12.7806 8.93985 13.0495 9.7464 13.0495 10.6605C13.0495 11.4133 12.8881 12.0585 12.6193 12.5962C12.3504 13.1339 11.9203 13.6179 11.4363 13.9405C10.9524 14.2631 10.3609 14.532 9.71569 14.6933C9.07044 14.8546 8.4252 14.9621 7.77995 14.9621H0.574705V0.121485H7.61864ZM7.18848 6.14378C7.77995 6.14378 8.26389 5.98247 8.64028 5.71362C9.01667 5.44476 9.17798 4.96083 9.17798 4.36935C9.17798 4.04673 9.12421 3.72411 9.01667 3.50903C8.90913 3.29394 8.74782 3.13263 8.53274 2.97132C8.31766 2.86378 8.10257 2.75624 7.83372 2.70247C7.56487 2.6487 7.29602 2.6487 6.97339 2.6487H3.85471V6.14378H7.18848ZM7.34979 12.4887C7.67241 12.4887 7.99503 12.4349 8.26389 12.3812C8.53274 12.3274 8.80159 12.2198 9.01667 12.0585C9.23175 11.8972 9.39307 11.7359 9.55438 11.4671C9.66192 11.1982 9.76946 10.8756 9.76946 10.4992C9.76946 9.7464 9.55438 9.2087 9.12421 8.8323C8.69405 8.50968 8.10257 8.34837 7.40356 8.34837H3.85471V12.4887H7.34979ZM17.7275 12.4349C18.1577 12.8651 18.8029 13.0802 19.6632 13.0802C20.2547 13.0802 20.7924 12.9189 21.2226 12.65C21.6527 12.3274 21.9216 12.0048 22.0291 11.6821H24.6639C24.2337 12.9726 23.5885 13.8867 22.7281 14.4782C21.8678 15.0159 20.8462 15.3385 19.6095 15.3385C18.7491 15.3385 17.9963 15.1772 17.2973 14.9084C16.5983 14.6395 16.0606 14.2631 15.5767 13.7254C15.0927 13.2415 14.7163 12.65 14.5013 11.951C14.2324 11.252 14.1249 10.4992 14.1249 9.63886C14.1249 8.8323 14.2324 8.07952 14.5013 7.3805C14.7701 6.68149 15.1465 6.09001 15.6304 5.5523C16.1144 5.06837 16.7059 4.63821 17.3511 4.36935C18.0501 4.1005 18.7491 3.93919 19.6095 3.93919C20.5236 3.93919 21.3301 4.1005 22.0291 4.47689C22.7281 4.85329 23.2659 5.28345 23.696 5.9287C24.1262 6.52017 24.4488 7.21919 24.6639 7.97198C24.7714 8.72476 24.8252 9.47755 24.7714 10.3379H16.9747C16.9747 11.1982 17.2973 12.0048 17.7275 12.4349ZM21.115 6.78903C20.7386 6.41263 20.1472 6.19755 19.4481 6.19755C18.9642 6.19755 18.5878 6.30509 18.2652 6.4664C17.9426 6.62771 17.7275 6.8428 17.5124 7.05788C17.2973 7.27296 17.1898 7.54181 17.136 7.81067C17.0822 8.07952 17.0285 8.2946 17.0285 8.50968H21.8678C21.7603 7.70312 21.4914 7.16542 21.115 6.78903ZM28.9655 0.121485V5.71362H29.0193C29.3957 5.06837 29.8796 4.63821 30.4711 4.36935C31.0626 4.1005 31.6003 3.93919 32.1918 3.93919C32.9983 3.93919 33.6436 4.04673 34.1275 4.26181C34.6114 4.47689 35.0416 4.79952 35.3104 5.17591C35.5793 5.5523 35.7944 6.03624 35.9019 6.57394C36.0095 7.11165 36.0632 7.70312 36.0632 8.40214V15.0159H33.1059V8.93985C33.1059 8.02575 32.9445 7.3805 32.6757 6.95034C32.4068 6.52017 31.9229 6.30509 31.2239 6.30509C30.4173 6.30509 29.8259 6.57394 29.5032 7.00411C29.1268 7.48804 28.9655 8.2946 28.9655 9.37001V15.0159H26.0081V0.121485H28.9655ZM38.2141 5.82116C38.5367 5.33722 38.9131 5.0146 39.397 4.69198C39.8809 4.42312 40.4186 4.20804 41.0101 4.1005C41.6016 3.99296 42.1931 3.93919 42.7845 3.93919C43.3222 3.93919 43.86 3.99296 44.4514 4.04673C44.9891 4.1005 45.5268 4.26181 45.957 4.47689C46.4409 4.69198 46.7636 5.0146 47.0862 5.39099C47.355 5.76739 47.5163 6.30509 47.5163 6.95034V12.5962C47.5163 13.0802 47.5701 13.5641 47.6239 13.9943C47.6777 14.4244 47.839 14.8008 48.0003 15.0159H44.9891C44.8816 14.9084 44.8278 14.6933 44.774 14.532C44.7203 14.3707 44.7203 14.1556 44.7203 13.9943C44.2363 14.4782 43.6986 14.8008 43.0534 15.0159C42.4082 15.231 41.7629 15.2848 41.1177 15.2848C40.58 15.2848 40.1498 15.231 39.6659 15.0697C39.2357 14.9621 38.8593 14.7471 38.4829 14.4782C38.1603 14.2094 37.8914 13.8867 37.6763 13.4566C37.515 13.0264 37.4075 12.5962 37.4075 12.0048C37.4075 11.4133 37.515 10.8756 37.7301 10.4992C37.9452 10.1228 38.2141 9.80017 38.5367 9.53132C38.8593 9.31624 39.2895 9.10116 39.7196 8.99362C40.1498 8.88608 40.58 8.77853 41.0639 8.72476L42.3544 8.56345C42.7845 8.50968 43.1609 8.45591 43.4836 8.40214C43.8062 8.2946 44.075 8.18706 44.2901 8.02575C44.5052 7.86444 44.559 7.64935 44.559 7.32673C44.559 7.00411 44.5052 6.73526 44.3977 6.57394C44.2901 6.41263 44.1288 6.25132 43.9675 6.14378C43.8062 6.03624 43.5911 5.98247 43.376 5.9287C43.1609 5.87493 42.8921 5.87493 42.6232 5.87493C42.0318 5.87493 41.6016 5.98247 41.279 6.25132C40.9563 6.52017 40.7413 6.95034 40.6875 7.48804H37.7301C37.7301 6.8428 37.9452 6.25132 38.2141 5.82116ZM44.075 10.0153C43.9137 10.069 43.6986 10.1228 43.4836 10.1766C43.2685 10.2303 43.0534 10.2303 42.7845 10.2841C42.5695 10.3379 42.3006 10.3379 42.0855 10.3916L41.4403 10.553C41.2252 10.6067 41.0101 10.7143 40.9026 10.8218C40.7413 10.9294 40.6337 11.0907 40.5262 11.252C40.3649 11.4671 40.3649 11.6821 40.3649 11.951C40.3649 12.2198 40.4186 12.4349 40.5262 12.5962C40.6337 12.7576 40.7413 12.9189 40.9026 13.0264C41.0639 13.1339 41.279 13.1877 41.4941 13.2415C41.7091 13.2953 41.9242 13.2953 42.1931 13.2953C42.7845 13.2953 43.2147 13.1877 43.5373 13.0264C43.86 12.8113 44.075 12.5962 44.2363 12.3274C44.3977 12.0585 44.5052 11.7897 44.5052 11.5208C44.559 11.252 44.559 11.0369 44.559 10.8756V9.7464C44.3977 9.85394 44.2363 9.96148 44.075 10.0153ZM51.9793 4.20804V5.71362H52.0331C52.4095 5.06837 52.8934 4.63821 53.4849 4.36935C54.0763 4.1005 54.7216 3.93919 55.3131 3.93919C56.1196 3.93919 56.7649 4.04673 57.2488 4.26181C57.7865 4.47689 58.1629 4.79952 58.4318 5.17591C58.7006 5.5523 58.9157 6.03624 59.077 6.57394C59.1845 7.11165 59.2383 7.70312 59.2383 8.40214V15.0159H56.2809V8.93985C56.2809 8.02575 56.1196 7.3805 55.8508 6.95034C55.5819 6.52017 55.098 6.25132 54.3452 6.25132C53.5386 6.25132 52.9472 6.57394 52.5708 7.05788C52.1944 7.54181 52.0331 8.34837 52.0331 9.42378V15.0697H49.0757V4.20804H51.9793ZM65.8521 6.14378C65.3682 6.14378 64.9918 6.25132 64.6691 6.4664C64.3465 6.68149 64.0777 6.95034 63.8626 7.32673C63.6475 7.64935 63.54 8.02575 63.4324 8.45591C63.3249 8.88608 63.3249 9.26247 63.3249 9.69263C63.3249 10.069 63.3786 10.4992 63.4324 10.8756C63.54 11.3057 63.6475 11.6284 63.8626 11.951C64.0777 12.2736 64.2927 12.5425 64.6154 12.7576C64.938 12.9726 65.3144 13.0802 65.7983 13.0802C66.4973 13.0802 67.035 12.8651 67.4652 12.4887C67.8416 12.1123 68.1104 11.5746 68.1642 10.8756H71.0141C70.799 12.3274 70.2613 13.4028 69.3472 14.1556C68.4331 14.9084 67.2501 15.2848 65.7983 15.2848C64.9918 15.2848 64.239 15.1235 63.5937 14.8546C62.8947 14.5857 62.357 14.2094 61.8731 13.7254C61.3891 13.2415 61.0127 12.65 60.7439 12.0048C60.475 11.3057 60.3675 10.6067 60.3675 9.80017C60.3675 8.93985 60.475 8.18706 60.7439 7.48804C61.0127 6.78903 61.3354 6.14378 61.8193 5.60608C62.3032 5.06837 62.8947 4.69198 63.54 4.36935C64.239 4.1005 64.9918 3.93919 65.8521 3.93919C66.4973 3.93919 67.0888 4.04673 67.6803 4.20804C68.2718 4.36935 68.8095 4.63821 69.2396 4.96083C69.7236 5.28345 70.1 5.71362 70.3688 6.25132C70.6377 6.73526 70.799 7.3805 70.8527 8.07952H67.9491C67.8416 6.78903 67.1426 6.14378 65.8521 6.14378ZM16.3832 1.14312H22.4055V2.59493H16.3832V1.14312ZM75.477 12.4349C75.9072 12.8651 76.6062 13.0802 77.4127 13.0802C78.0042 13.0802 78.5419 12.9189 78.9721 12.65C79.4023 12.3274 79.6711 12.0048 79.7786 11.6821H82.3596C81.9295 12.9726 81.2842 13.8867 80.4239 14.4782C79.5636 15.0159 78.5419 15.3385 77.3052 15.3385C76.4449 15.3385 75.6921 15.1772 74.9931 14.9084C74.2941 14.6395 73.7563 14.2631 73.2724 13.7254C72.7885 13.2415 72.4121 12.65 72.197 11.951C71.9282 11.252 71.8206 10.4992 71.8206 9.63886C71.8206 8.8323 71.9282 8.07952 72.197 7.3805C72.4659 6.68149 72.8423 6.09001 73.3262 5.5523C73.8101 5.06837 74.4016 4.63821 75.0468 4.36935C75.7459 4.1005 76.4986 3.93919 77.3052 3.93919C78.2193 3.93919 79.0259 4.1005 79.6711 4.47689C80.3701 4.85329 80.9078 5.28345 81.338 5.9287C81.7681 6.52017 82.0908 7.21919 82.3059 7.97198C82.5209 8.72476 82.5747 9.53132 82.5209 10.3916H74.7242C74.7242 11.1982 75.0468 12.0048 75.477 12.4349ZM78.9183 6.78903C78.5419 6.41263 77.9505 6.19755 77.2514 6.19755C76.7675 6.19755 76.3911 6.30509 76.0685 6.4664C75.7459 6.62771 75.477 6.8428 75.3157 7.05788C75.1544 7.27296 74.9931 7.54181 74.9393 7.81067C74.8855 8.07952 74.8318 8.2946 74.8318 8.50968H79.6711C79.5098 7.70312 79.2409 7.16542 78.9183 6.78903Z" fill="black"/>
</svg>
